<svg id="Layer_1" data-name="Layer 1" xmlns="http://www.w3.org/2000/svg" viewBox="0 0 803.042 253.731">
  <defs>
    <style>
      .cls-1{fill:#fff}
    </style>
  </defs>
  <path class="cls-1" d="M195.58 140.9c-.04.35-.18 1.51-.4 3.33h26.99l-3.59 25.5h-26.37c-4.23 36.06-10.88 93-10.88 93h-30.66s6.8-55.74 11.25-93h-13.76l3.34-25.5h13.42c.16-1.41.3-2.64.41-3.67 2.25-20.5 5.05-24.66 8.55-29.77 9.37-14.75 30.18-15.37 33-15.37h22.24s-3.18 25.62-3.24 26.25c0 0-5.44.09-12.22.09s-8.57.78-10.44 1.72c-6.38 2.72-7.14 13.249-7.64 17.42ZM401.55 143.839s-3.18 25.62-3.24 26.25c0 0-6.72.09-13.5.09s-8.57.78-10.44 1.72c-6.38 2.72-7.14 13.25-7.64 17.42-.04.35-.18 1.51-.4 3.33-2.03 17.36-5.32 45.47-8.18 69.95h-30.48c2.92-24.25 6.27-52.13 8.4-69.95.16-1.41.3-2.64.41-3.67 2.25-20.5 5.05-24.66 8.55-29.77 9.37-14.75 30.18-15.37 33-15.37ZM740.55 143.839s-3.18 25.62-3.24 26.25c0 0-6.72.09-13.5.09s-8.57.78-10.44 1.72c-6.38 2.72-7.14 13.25-7.64 17.42-.04.35-.18 1.51-.4 3.33-2.03 17.36-5.32 45.47-8.18 69.95h-30.48c2.92-24.25 6.27-52.13 8.4-69.95.16-1.41.3-2.64.41-3.67 2.25-20.5 5.05-24.66 8.55-29.77 9.37-14.75 30.18-15.37 33-15.37Z" transform="translate(-147.02 -95.229)"/>
  <path class="cls-1" d="M423.65 48.79 375.6 167.58h-29.03l-11.56-67.02-27.56 67.02h-29.68L258.65 48.61h30.61l9.81 77.02 31.35-77.02h23.59l12.59 77.1 28.59-76.92h28.46z"/>
  <path class="cls-1" d="M654 155.9c-6.5-9.34-17.71-13.5-35.63-13.5s-28.7 3.83-37.33 13.54-10.37 27.45-10.37 27.45h27.14c1.31-6.25 1.6-16.03 16.88-16.03s14.1 8.35 14.1 10.99-1.62 12.42-1.62 12.42c-10.34 1.25-37.92 7.71-46.05 11.77s-19.31 13.5-19.31 32.25 10.88 29.75 32.38 29.75 27.26-13.48 27.26-13.48l-1.3 11.54h29.38s8.41-69.87 9.19-76.37 1.78-21.001-4.72-30.33Zm-31.33 71.54c-.8 4.04-3.25 14.83-17.75 14.83-5.88 0-12.42-1.57-12.42-12.2s8.06-14.4 19.47-16.34c11.18-1.9 12.64-1.92 12.7-1.92 0-.001-1.21 11.59-2 15.629ZM821 95.229l-6.76 61.98c-5.17-14.07-17.45-14.81-26.7-14.81s-17.35 1.44-26.29 7.08C746.94 159.789 738 187.4 738 219.729c0 37.37 13 43.25 36.12 44.75s30.12-15.56 30.12-15.56l-1.49 13.68h29.08L852 95.229Zm-19.43 137.33c-3.61 5.92-7.32 8.3-17.99 8.3s-15.14-4.38-14.52-20.82 3.48-40.77 10.02-46.73c3.23-3.08 6.7-4.52 14.39-4.52 5.06 0 16.2.31 16.2 13.44s-2.45 41.25-8.1 50.33ZM877.146 118.146h-12.375s1.385-12.729 7.635-17.667c2.531-2.188 6.625-5.125 17.344-5.125s20.312 3.875 20.312 17-7.771 16.542-10.4 17.667c0 0 7.625 2.333 7.625 13.25s-3.042 23.271-25.6 23.271-20.5-15.062-20.5-22.375h12.531v4.469c0 2.5 1 7.25 9.031 7.25s11.562-3.5 11.562-10.719-4-8.354-8.083-8.354h-7.062l1.292-11.458h7.854c1.9 0 8.688-1.125 8.688-10.625 0-3.854-.687-7.479-9.1-7.479s-9.838 5.749-10.754 10.895Z" transform="translate(-147.02 -95.229)"/>
  <path class="cls-1" d="m773.147 9.229 20.395-7.937h9.5l-7.781 68.771h-12.25l6.25-55.5-17.219 6.468 1.105-11.802z"/>
  <path class="cls-1" d="M319.17 164.229c-7.34-21.17-32.13-22.22-42.29-22.22-18.56 0-29 4.53-34.38 7.55-15.17 9.17-19 29.5-22.33 56.17s2.08 43.5 11.71 50.56 23.91 8.23 33.33 8.23 18.96-.46 31.21-5.96c25.08-11.08 30.08-73.159 22.75-94.33Zm-41.92 74.44a25.533 25.533 0 0 1-11.13 2.16c-3.04 0-13.49.4-15.33-8.73s.71-28 1.96-37.06 3.75-19.64 8.37-22.77 9.73-3.54 14-3.54c7.57 0 16.07 1.69 15.82 15.63s-2.56 50.12-13.69 54.31ZM162.016 311.065v27.685h-6.456v-27.685h-8.54v-5.785h23.536v5.785ZM179.041 317.972a5.878 5.878 0 0 1 2.637-2.515 9.934 9.934 0 0 1 6.924-.024 4.913 4.913 0 0 1 2.219 1.88 8.677 8.677 0 0 1 1.157 3.2 26.186 26.186 0 0 1 .341 4.513v13.726h-5.5v-13.541a15.139 15.139 0 0 0-.171-2.468 3.89 3.89 0 0 0-.607-1.622 2.362 2.362 0 0 0-1.214-.87 7.442 7.442 0 0 0-3.263-.141 2.191 2.191 0 0 0-.986.494 3.861 3.861 0 0 0-.816 1.057q-.063.114-.125.24a6.06 6.06 0 0 0-.6 2.685v14.162h-5.5v-33.47h5.5ZM338.8 317.972a5.878 5.878 0 0 1 2.637-2.515 9.934 9.934 0 0 1 6.924-.024 4.913 4.913 0 0 1 2.219 1.88 8.677 8.677 0 0 1 1.157 3.2 26.186 26.186 0 0 1 .341 4.513v13.726h-5.5v-13.541a15.139 15.139 0 0 0-.171-2.468 3.89 3.89 0 0 0-.607-1.622 2.362 2.362 0 0 0-1.214-.87 7.442 7.442 0 0 0-3.263-.141 2.191 2.191 0 0 0-.986.494 3.861 3.861 0 0 0-.816 1.057q-.063.114-.125.24a6.06 6.06 0 0 0-.6 2.685v14.162h-5.5v-33.47h5.5ZM215.282 331.879a8.22 8.22 0 0 1-2.891 5.582 10.4 10.4 0 0 1-6.439 1.767 12.565 12.565 0 0 1-4.472-.707 6.933 6.933 0 0 1-3.026-2.191 9.5 9.5 0 0 1-1.716-3.792 28.412 28.412 0 0 1 0-11.023 9.5 9.5 0 0 1 1.716-3.792 6.935 6.935 0 0 1 3.026-2.19 14.507 14.507 0 0 1 8.945 0 6.939 6.939 0 0 1 3.026 2.19 9.516 9.516 0 0 1 1.716 3.792 24.5 24.5 0 0 1 .54 5.512v.871c0 .267-.013.526-.039.777h-13.88a16.51 16.51 0 0 0 .289 3.015 4.826 4.826 0 0 0 .752 1.861 2.429 2.429 0 0 0 1.253.919 6.329 6.329 0 0 0 1.87.236 5.023 5.023 0 0 0 2.6-.589 2.891 2.891 0 0 0 1.215-2.237Zm-5.2-7.443a12.71 12.71 0 0 0-.347-2.568 3.844 3.844 0 0 0-.771-1.578 2.745 2.745 0 0 0-1.234-.8 5.849 5.849 0 0 0-1.774-.236 6.041 6.041 0 0 0-1.793.236 2.609 2.609 0 0 0-1.234.8 3.984 3.984 0 0 0-.752 1.578 12.619 12.619 0 0 0-.347 2.568v.236h8.251ZM374.9 331.879a8.22 8.22 0 0 1-2.9 5.582 10.4 10.4 0 0 1-6.439 1.767 12.565 12.565 0 0 1-4.472-.707 6.933 6.933 0 0 1-3.026-2.191 9.5 9.5 0 0 1-1.716-3.792 28.412 28.412 0 0 1 0-11.023 9.5 9.5 0 0 1 1.716-3.792 6.935 6.935 0 0 1 3.026-2.19 14.507 14.507 0 0 1 8.945 0 6.939 6.939 0 0 1 3.026 2.19 9.516 9.516 0 0 1 1.716 3.792 24.5 24.5 0 0 1 .54 5.512v.871c0 .267-.013.526-.039.777H361.4a16.51 16.51 0 0 0 .289 3.015 4.826 4.826 0 0 0 .752 1.861 2.429 2.429 0 0 0 1.253.919 6.329 6.329 0 0 0 1.87.236 5.023 5.023 0 0 0 2.6-.589 2.891 2.891 0 0 0 1.215-2.237Zm-5.2-7.443a12.71 12.71 0 0 0-.347-2.568 3.844 3.844 0 0 0-.771-1.578 2.745 2.745 0 0 0-1.234-.8 5.849 5.849 0 0 0-1.774-.236 6.041 6.041 0 0 0-1.793.236 2.609 2.609 0 0 0-1.234.8 3.984 3.984 0 0 0-.752 1.578 12.619 12.619 0 0 0-.347 2.568v.236h8.251ZM815.29 331.879a8.22 8.22 0 0 1-2.891 5.582 10.4 10.4 0 0 1-6.439 1.767 12.565 12.565 0 0 1-4.472-.707 6.933 6.933 0 0 1-3.026-2.191 9.5 9.5 0 0 1-1.716-3.792 28.412 28.412 0 0 1 0-11.023 9.5 9.5 0 0 1 1.716-3.792 6.935 6.935 0 0 1 3.026-2.19 14.507 14.507 0 0 1 8.945 0 6.939 6.939 0 0 1 3.026 2.19 9.516 9.516 0 0 1 1.716 3.792 24.5 24.5 0 0 1 .54 5.512v.871c0 .267-.013.526-.039.777H801.8a16.51 16.51 0 0 0 .289 3.015 4.826 4.826 0 0 0 .752 1.861 2.429 2.429 0 0 0 1.253.919 6.329 6.329 0 0 0 1.87.236 5.023 5.023 0 0 0 2.6-.589 2.891 2.891 0 0 0 1.215-2.237Zm-5.2-7.443a12.71 12.71 0 0 0-.347-2.568 3.844 3.844 0 0 0-.771-1.578 2.745 2.745 0 0 0-1.234-.8 5.849 5.849 0 0 0-1.774-.236 6.041 6.041 0 0 0-1.793.236 2.609 2.609 0 0 0-1.234.8 3.984 3.984 0 0 0-.752 1.578 12.619 12.619 0 0 0-.347 2.568v.236h8.251ZM239.473 305.231q5.579 0 8 2.558c1.615 1.706 2.423 3.7 2.423 8.543 0 4.944-.808 6.809-2.423 8.514s-4.283 2.558-8 2.558h-5.213v11.345h-6.435v-33.47Zm-5.213 16.435h5.091a9.088 9.088 0 0 0 2.26-.239 3.116 3.116 0 0 0 1.446-.765 2.961 2.961 0 0 0 .754-1.387 8.733 8.733 0 0 0 .224-2.152 28.573 28.573 0 0 0-.224-3.764 2.963 2.963 0 0 0-.754-1.387 3.125 3.125 0 0 0-1.446-.765 9.118 9.118 0 0 0-2.26-.239h-5.091ZM261.857 314.826a13.456 13.456 0 0 1 4.629.707 7.031 7.031 0 0 1 3.119 2.19 9.632 9.632 0 0 1 1.765 3.792 26.982 26.982 0 0 1 0 11.023 9.626 9.626 0 0 1-1.765 3.792 7.029 7.029 0 0 1-3.119 2.191 15.516 15.516 0 0 1-9.258 0 7.023 7.023 0 0 1-3.119-2.191 9.611 9.611 0 0 1-1.765-3.792 26.982 26.982 0 0 1 0-11.023 9.616 9.616 0 0 1 1.765-3.792 7.025 7.025 0 0 1 3.119-2.19 13.454 13.454 0 0 1 4.629-.707Zm0 4.663a6.871 6.871 0 0 0-2.118.283 2.5 2.5 0 0 0-1.373 1.107 6.059 6.059 0 0 0-.726 2.285 33.855 33.855 0 0 0 0 7.631 6.052 6.052 0 0 0 .726 2.285 2.5 2.5 0 0 0 1.373 1.107 8.078 8.078 0 0 0 4.237 0 2.5 2.5 0 0 0 1.373-1.107 6.078 6.078 0 0 0 .726-2.285 33.855 33.855 0 0 0 0-7.631 6.085 6.085 0 0 0-.726-2.285 2.5 2.5 0 0 0-1.373-1.107 6.877 6.877 0 0 0-2.119-.283ZM554.716 314.826a13.456 13.456 0 0 1 4.629.707 7.031 7.031 0 0 1 3.119 2.19 9.632 9.632 0 0 1 1.765 3.792 26.982 26.982 0 0 1 0 11.023 9.626 9.626 0 0 1-1.765 3.792 7.029 7.029 0 0 1-3.119 2.191 15.516 15.516 0 0 1-9.258 0 7.023 7.023 0 0 1-3.119-2.191 9.611 9.611 0 0 1-1.765-3.792 26.982 26.982 0 0 1 0-11.023 9.616 9.616 0 0 1 1.765-3.792 7.025 7.025 0 0 1 3.119-2.19 13.454 13.454 0 0 1 4.629-.707Zm0 4.663a6.871 6.871 0 0 0-2.118.283 2.5 2.5 0 0 0-1.373 1.107 6.059 6.059 0 0 0-.726 2.285 33.855 33.855 0 0 0 0 7.631 6.052 6.052 0 0 0 .726 2.285 2.5 2.5 0 0 0 1.373 1.107 8.078 8.078 0 0 0 4.237 0 2.5 2.5 0 0 0 1.373-1.107 6.078 6.078 0 0 0 .726-2.285 33.855 33.855 0 0 0 0-7.631 6.085 6.085 0 0 0-.726-2.285 2.5 2.5 0 0 0-1.373-1.107 6.877 6.877 0 0 0-2.119-.283ZM329.941 329.729c0 3.709-.844 5.973-2.531 7.383a10.675 10.675 0 0 1-7.047 2.115 12.663 12.663 0 0 1-4.5-.705 6.879 6.879 0 0 1-3.018-2.186 9.589 9.589 0 0 1-1.713-3.784 28.016 28.016 0 0 1 0-11 9.594 9.594 0 0 1 1.713-3.784 6.881 6.881 0 0 1 3.018-2.185 12.663 12.663 0 0 1 4.5-.705 10.759 10.759 0 0 1 7.047 2.092c1.687 1.395 2.531 4.01 2.531 7.692h-5.49a15.3 15.3 0 0 0-.273-3.062 2.762 2.762 0 0 0-.8-1.246 3.108 3.108 0 0 0-1.285-.635 7.266 7.266 0 0 0-1.733-.188 6.272 6.272 0 0 0-2.025.282 2.41 2.41 0 0 0-1.3 1.1 6.33 6.33 0 0 0-.7 2.28 33.933 33.933 0 0 0 0 7.615 6.322 6.322 0 0 0 .7 2.28 2.407 2.407 0 0 0 1.3 1.1 6.272 6.272 0 0 0 2.025.282 8.213 8.213 0 0 0 1.733-.164 2.763 2.763 0 0 0 1.285-.635 2.925 2.925 0 0 0 .8-1.269 12 12 0 0 0 .273-2.729ZM399.339 305.279a16.735 16.735 0 0 1 5.785.885 8.719 8.719 0 0 1 3.925 2.845 12.636 12.636 0 0 1 2.228 5.164 44.584 44.584 0 0 1 0 15.683 12.625 12.625 0 0 1-2.228 5.164 8.713 8.713 0 0 1-3.925 2.845 16.728 16.728 0 0 1-5.785.884h-12.164v-33.47Zm-5.705 27.493h5.705a9.859 9.859 0 0 0 2.984-.382 3.367 3.367 0 0 0 1.881-1.53 8.654 8.654 0 0 0 .981-3.275 54.379 54.379 0 0 0 0-11.141 8.658 8.658 0 0 0-.981-3.275 3.37 3.37 0 0 0-1.881-1.53 9.879 9.879 0 0 0-2.984-.382h-5.705ZM415.568 311.065v-5.785h6.16v5.785Zm.042 27.685v-23.908h6.076v23.907ZM450.16 311.065v-5.785h6.16v5.785Zm.042 27.685v-23.908h6.076v23.907ZM751.727 311.065v-5.785h6.16v5.785Zm.042 27.685v-23.908h6.076v23.907ZM439.9 336.164a6.049 6.049 0 0 1-2.6 2.348 8.635 8.635 0 0 1-3.733.767q-4.339 0-6.195-2.875t-1.857-9.058q0-6.517 1.857-9.466t6.195-2.947a8.649 8.649 0 0 1 3.733.767 6.052 6.052 0 0 1 2.6 2.349v-2.78h5.667v25.688a8.065 8.065 0 0 1-.762 3.666 6.816 6.816 0 0 1-2.071 2.468 8.956 8.956 0 0 1-3.049 1.414 14.7 14.7 0 0 1-3.733.455 14.024 14.024 0 0 1-3.537-.431 8.084 8.084 0 0 1-2.892-1.366 7.053 7.053 0 0 1-1.993-2.4 8.62 8.62 0 0 1-.88-3.522h5.589a2.889 2.889 0 0 0 1.094 2.42 4.624 4.624 0 0 0 2.658.695 4.762 4.762 0 0 0 2.853-.767 3.043 3.043 0 0 0 1.055-2.636Zm0-13.9a3.747 3.747 0 0 0-1.485-2.085 4.98 4.98 0 0 0-2.619-.6 5.433 5.433 0 0 0-2.169.384 3.133 3.133 0 0 0-1.427 1.27 6.441 6.441 0 0 0-.782 2.372 24.267 24.267 0 0 0-.235 3.69 22.062 22.062 0 0 0 .235 3.522 6.108 6.108 0 0 0 .782 2.277 3.022 3.022 0 0 0 1.427 1.222 5.751 5.751 0 0 0 2.169.36 4.971 4.971 0 0 0 2.619-.6 3.741 3.741 0 0 0 1.485-2.085ZM473.858 315.021v5.116h-5.837v10.34a3.75 3.75 0 0 0 .419 1.936 2.972 2.972 0 0 0 1.1 1.076 2.755 2.755 0 0 0 .918.311 6.453 6.453 0 0 0 .958.072c.266 0 2.2-.064 2.444-.1v5.116a28.485 28.485 0 0 1-4.28.287 14.055 14.055 0 0 1-2.455-.215 5.443 5.443 0 0 1-2.135-.837 5.6 5.6 0 0 1-2.056-2.63 12.984 12.984 0 0 1-.738-4.877v-10.34h-2.971v-5.116h2.971v-5.67h5.788v5.674ZM477.1 322.862c0-1.339-.349-8.063 9.038-8.063 9.158 0 8.848 6.473 8.848 7.875V338.8h-6.006v-2.285c-1.64 2.664-3.993 2.664-5.486 2.664-2.954 0-4.387-.828-5.012-1.434a6.208 6.208 0 0 1-1.469-2.343 10.072 10.072 0 0 1-.532-3.491c0-6.819 12.31-7.168 12.31-7.168v-2.777c0-1.179-.9-2.357-3.3-2.357-2.9 0-2.953 2.073-2.953 3.252Zm5.322 8.977a3.18 3.18 0 0 0 .812 2.495 3.641 3.641 0 0 0 2.39.626 3.114 3.114 0 0 0 3.169-2.953v-3.367s-6.375.243-6.375 3.199ZM628.335 322.862c0-1.339-.349-8.063 9.038-8.063 9.158 0 8.848 6.473 8.848 7.875V338.8h-6.006v-2.285c-1.64 2.664-3.993 2.664-5.486 2.664-2.954 0-4.387-.828-5.012-1.434a6.208 6.208 0 0 1-1.469-2.343 10.072 10.072 0 0 1-.532-3.491c0-6.819 12.31-7.168 12.31-7.168v-2.777c0-1.179-.9-2.357-3.3-2.357-2.9 0-2.953 2.073-2.953 3.252Zm5.322 8.977a3.18 3.18 0 0 0 .812 2.495 3.641 3.641 0 0 0 2.39.626 3.114 3.114 0 0 0 3.169-2.953v-3.367s-6.372.243-6.372 3.199ZM499.27 338.749v-33.438h6.1v33.438ZM542.119 326.705a19.732 19.732 0 0 1-.836 6.067 8.766 8.766 0 0 1-2.1 3.634 8.308 8.308 0 0 1-3.44 2.1 22.509 22.509 0 0 1-5.7.669 18.407 18.407 0 0 1-6.269-.956 8.638 8.638 0 0 1-3.835-3.036 12.032 12.032 0 0 1-1.908-5.332 50.151 50.151 0 0 1-.349-7.841 41.188 41.188 0 0 1 .43-7.842 14.321 14.321 0 0 1 1.828-5.308 7.158 7.158 0 0 1 3.709-3.012 19.176 19.176 0 0 1 6.394-.956 21.563 21.563 0 0 1 5.669.669 8.113 8.113 0 0 1 5.57 5.714 24.208 24.208 0 0 1 .836 6.663H535.8a24.428 24.428 0 0 0-.408-4.69 3.9 3.9 0 0 0-1.142-1.626 4.3 4.3 0 0 0-1.795-.837 10.789 10.789 0 0 0-2.366-.239 8.807 8.807 0 0 0-2.876.406 3.525 3.525 0 0 0-1.877 1.6 8.8 8.8 0 0 0-1 3.3 54.844 54.844 0 0 0-.285 6.155c0 2.264.095 5.762.285 7.149a8.756 8.756 0 0 0 1 3.275 3.517 3.517 0 0 0 1.877 1.6 8.79 8.79 0 0 0 2.876.406 10.751 10.751 0 0 0 2.366-.239 4.277 4.277 0 0 0 1.795-.837 3.892 3.892 0 0 0 1.142-1.626 23.9 23.9 0 0 0 .408-5.04ZM574.022 317.909a5.854 5.854 0 0 1 2.657-2.476 8.845 8.845 0 0 1 3.356-.608 7.724 7.724 0 0 1 4.151.958 5.678 5.678 0 0 1 2.25 2.967 6.348 6.348 0 0 1 2.812-3.107 9.869 9.869 0 0 1 7.235-.163 5.017 5.017 0 0 1 2.23 1.869 8.476 8.476 0 0 1 1.183 3.177 25.3 25.3 0 0 1 .349 4.486V338.7h-5.625v-13.6a16.51 16.51 0 0 0-.155-2.453 3.8 3.8 0 0 0-.582-1.612 2.319 2.319 0 0 0-1.164-.864 5.891 5.891 0 0 0-1.9-.257 7.042 7.042 0 0 0-1.222.094 2.047 2.047 0 0 0-.951.444 3.336 3.336 0 0 0-.776.981 5.621 5.621 0 0 0-.6 2.827c0 .374.02.841.02 1.4v13.04h-5.625v-13.55a16.51 16.51 0 0 0-.155-2.453 3.8 3.8 0 0 0-.582-1.612 2.319 2.319 0 0 0-1.164-.864 5.746 5.746 0 0 0-1.862-.257 7.081 7.081 0 0 0-1.222.093 1.924 1.924 0 0 0-.931.444 3.464 3.464 0 0 0-.757 1q-.05.094-.1.2a6.231 6.231 0 0 0-.6 2.718V338.7h-5.625v-23.314h5.355ZM610.564 317.937a6.028 6.028 0 0 1 2.554-2.346 8.366 8.366 0 0 1 3.676-.766q4.3 0 6.133 2.944t1.838 9.454q0 6.511-1.838 9.454t-6.133 2.944a8.366 8.366 0 0 1-3.676-.766 6.022 6.022 0 0 1-2.554-2.346v12.207h-5.611v-33.46h5.611Zm0 13.931a3.814 3.814 0 0 0 1.451 2.226 4.7 4.7 0 0 0 2.612.646 5.327 5.327 0 0 0 2.148-.383 3.105 3.105 0 0 0 1.412-1.269 6.443 6.443 0 0 0 .774-2.346 28.276 28.276 0 0 0 0-7.229 6.21 6.21 0 0 0-.774-2.322 3 3 0 0 0-1.412-1.221 5.649 5.649 0 0 0-2.148-.359 4.7 4.7 0 0 0-2.612.646 3.816 3.816 0 0 0-1.451 2.226ZM786.307 336.06a6.028 6.028 0 0 1-2.554 2.346 8.366 8.366 0 0 1-3.676.766q-4.3 0-6.133-2.944t-1.838-9.454q0-6.511 1.838-9.454t6.133-2.944a8.366 8.366 0 0 1 3.676.766 6.022 6.022 0 0 1 2.554 2.346v-12.209h5.611v33.462h-5.611Zm0-13.931a3.814 3.814 0 0 0-1.451-2.226 4.7 4.7 0 0 0-2.612-.646 5.327 5.327 0 0 0-2.148.383 3.105 3.105 0 0 0-1.412 1.269 6.443 6.443 0 0 0-.774 2.346 28.276 28.276 0 0 0 0 7.229 6.21 6.21 0 0 0 .774 2.322 3 3 0 0 0 1.412 1.221 5.649 5.649 0 0 0 2.148.359 4.7 4.7 0 0 0 2.612-.646 3.816 3.816 0 0 0 1.451-2.226ZM655.632 317.936a6 6 0 0 1 2.675-2.461 8.913 8.913 0 0 1 3.46-.633 9.059 9.059 0 0 1 3.554.609 5.047 5.047 0 0 1 2.264 1.875 8.51 8.51 0 0 1 1.2 3.187 25.066 25.066 0 0 1 .355 4.5V338.7h-5.425v-13.686a15.228 15.228 0 0 0-.168-2.461 3.737 3.737 0 0 0-.617-1.617 2.561 2.561 0 0 0-1.235-.891 5.959 5.959 0 0 0-1.983-.281 6.484 6.484 0 0 0-1.309.117 2.288 2.288 0 0 0-1.01.492 3.651 3.651 0 0 0-.823 1.054q-.062.113-.124.239a6.092 6.092 0 0 0-.587 2.675V338.7h-5.425v-23.39h5.213ZM672.631 348.53v-4.354c2.375 0 3.881-.338 4.838-1.1a4.751 4.751 0 0 0 1.666-3.521c-2.15-6.128-8.334-24.459-8.334-24.459h6.089l5.147 16.18 4.973-16.18h5.646s-6.292 18.519-8.63 25.319c-.7 2.024-1.344 5.107-4.542 7.257-1.596 1.071-4.406.858-6.853.858ZM714.077 305.231q5.274 0 7.587 2.176t2.313 6.67a10.988 10.988 0 0 1-.811 4.519 5.9 5.9 0 0 1-2.678 2.8 6.377 6.377 0 0 1 3.266 2.988 11.374 11.374 0 0 1 .994 5.092q0 4.734-2.434 7t-7.952 2.271h-12.213v-33.47Zm-5.94 14.056h4.827q2.667 0 3.62-.883a5.7 5.7 0 0 0 0-6.312q-.953-.883-3.62-.883h-4.827Zm0 14.393h4.954a11.421 11.421 0 0 0 2.519-.231 3.488 3.488 0 0 0 1.587-.771 2.861 2.861 0 0 0 .826-1.439 10.354 10.354 0 0 0 0-4.367 2.864 2.864 0 0 0-.826-1.439 3.488 3.488 0 0 0-1.587-.771 11.421 11.421 0 0 0-2.519-.231h-4.954ZM741.731 338.754V336.1a6.06 6.06 0 0 1-2.7 2.484 8.985 8.985 0 0 1-3.49.639 9.13 9.13 0 0 1-3.584-.615 5.081 5.081 0 0 1-2.282-1.893 8.57 8.57 0 0 1-1.207-3.217 25.246 25.246 0 0 1-.359-4.541v-13.809h5.471v13.814a15.4 15.4 0 0 0 .17 2.483 3.77 3.77 0 0 0 .623 1.632 2.578 2.578 0 0 0 1.245.9 6 6 0 0 0 2 .284 6.494 6.494 0 0 0 1.32-.118 2.29 2.29 0 0 0 1.019-.5 3.673 3.673 0 0 0 .83-1.064q.063-.114.125-.241a6.152 6.152 0 0 0 .592-2.7v-14.49h5.471v23.606ZM762.4 338.749v-33.518h5.853v33.518ZM301.625 322.875h5.4s1.29-8-8.346-8-9.219 6.383-9.219 8a6.561 6.561 0 0 0 4.381 5.967c3.266 1.008 7.781.685 7.781 3.669 0 2.3-2.068 2.5-3.352 2.5s-3.5-.323-3.5-3.185h-5.308s-.739 7.4 8.372 7.4 9.515-4.3 9.515-7.119-.968-5.564-4.475-6.531-7.539-.685-7.539-3.79c0-1.008.4-2.3 3.064-2.3s3.226 1.535 3.226 3.389ZM275.648 338.908v-17.229a6.8 6.8 0 0 1 6.8-6.8h5.187v5.321h-3.7a2.3 2.3 0 0 0-2.3 2.3v16.409ZM818.846 338.908v-17.229a6.8 6.8 0 0 1 6.8-6.8h5.187v5.321h-3.7a2.3 2.3 0 0 0-2.3 2.3v16.409Z" transform="translate(-147.02 -95.229)"/>
  <path class="cls-1" d="M508.625 220.082h.497v3.076l-.847.618.35-3.694z"/>
</svg>
