<svg width="89" height="89" viewBox="0 0 89 89" fill="none" xmlns="http://www.w3.org/2000/svg">
<path d="M44.1848 88.2504C19.8473 88.2504 0.119141 68.5223 0.119141 44.1848C0.119141 19.8473 19.8473 0.119141 44.1848 0.119141C68.5223 0.119141 88.2504 19.8473 88.2504 44.1848C88.2504 68.5223 68.5223 88.2504 44.1848 88.2504ZM44.1848 4.91285C22.6129 4.91285 4.9129 22.6129 4.9129 44.1848C4.9129 65.7566 22.6129 83.4566 44.1848 83.4566C65.7566 83.4566 83.4566 65.7566 83.4566 44.1848C83.4566 22.4285 65.7566 4.91285 44.1848 4.91285Z" fill="white"/>
<path d="M31.0938 66.8629V21.3223L70.1812 44.1848L31.0938 66.8629ZM36.2563 30.3566V57.8285L59.6719 44.1848L36.2563 30.3566Z" fill="white"/>
</svg>
